<?xml version="1.0" encoding="utf-8"?>
<!-- Generator: Adobe Illustrator 15.0.0, SVG Export Plug-In . SVG Version: 6.00 Build 0)  -->
<!DOCTYPE svg PUBLIC "-//W3C//DTD SVG 1.1//EN" "http://www.w3.org/Graphics/SVG/1.1/DTD/svg11.dtd">
<svg version="1.1" id="Layer_1" xmlns="http://www.w3.org/2000/svg" xmlns:xlink="http://www.w3.org/1999/xlink" x="0px" y="0px"
	 width="94px" height="76px" viewBox="0 0 94 76" enable-background="new 0 0 94 76" xml:space="preserve">
<polygon fill="#B4B4E6" points="17.666,62.334 48.333,76 80.666,59.334 47,0 "/>
<polygon fill="#9A9ACC" points="17.666,62.334 0,52.667 0,24 47,0 "/>
<polygon fill="#040468" points="94,53.334 80.666,59.334 47,0 94,22 "/>
<g>
	<path fill="#FFFFFF" stroke="#040468" d="M49.909,27.498l0.469-0.328l2.836,3.562c-2.5,1.613-4.574,3.374-6.223,5.284
		c-1.648,1.91-2.918,4.157-3.809,6.74c1.734-0.891,3.461-1.336,5.18-1.336c2.578,0,4.75,0.914,6.516,2.742s2.648,4.07,2.648,6.727
		c0,2.734-0.961,5.055-2.883,6.961s-4.258,2.859-7.008,2.859c-3.078,0-5.566-1.082-7.465-3.246s-2.848-4.996-2.848-8.496
		c0-2.625,0.488-5.238,1.465-7.84s2.383-5.039,4.219-7.312S47.144,29.436,49.909,27.498z M42.175,47.607
		c-0.125,0.734-0.188,1.555-0.188,2.461c0,1.844,0.535,3.359,1.605,4.547s2.441,1.781,4.113,1.781c1.5,0,2.738-0.508,3.715-1.523
		s1.465-2.297,1.465-3.844c0-1.578-0.52-2.855-1.559-3.832s-2.41-1.465-4.113-1.465c-0.875,0-1.668,0.133-2.379,0.398
		S43.237,46.889,42.175,47.607z"/>
</g>
</svg>
