<?xml version="1.0" encoding="utf-8"?>
<!-- Generator: Adobe Illustrator 15.0.0, SVG Export Plug-In . SVG Version: 6.00 Build 0)  -->
<!DOCTYPE svg PUBLIC "-//W3C//DTD SVG 1.1//EN" "http://www.w3.org/Graphics/SVG/1.1/DTD/svg11.dtd">
<svg version="1.1" id="Layer_1" xmlns="http://www.w3.org/2000/svg" xmlns:xlink="http://www.w3.org/1999/xlink" x="0px" y="0px"
	 width="94px" height="76px" viewBox="0 0 94 76" enable-background="new 0 0 94 76" xml:space="preserve">
<polygon fill="#B4B4E6" points="17.666,62.334 48.333,76 80.666,59.334 47,0 "/>
<polygon fill="#9A9ACC" points="17.666,62.334 0,52.667 0,24 47,0 "/>
<polygon fill="#040468" points="94,53.334 80.666,59.334 47,0 94,22 "/>
<g>
	<path fill="#FFFFFF" stroke="#040468" d="M47.354,27.17c3,0,5.48,1.574,7.441,4.723s2.941,7.145,2.941,11.988
		c0,4.969-0.98,9.008-2.941,12.117s-4.504,4.664-7.629,4.664c-3.172,0-5.719-1.523-7.641-4.57s-2.883-7.086-2.883-12.117
		c0-4.969,0.992-9.012,2.977-12.129S44.183,27.17,47.354,27.17z M47.401,31.623h-0.234c-1.797,0-3.223,1.105-4.277,3.316
		s-1.582,5.207-1.582,8.988c0,3.875,0.516,6.914,1.547,9.117s2.453,3.305,4.266,3.305s3.242-1.102,4.289-3.305
		s1.57-5.195,1.57-8.977c0-3.797-0.504-6.82-1.512-9.07S49.104,31.623,47.401,31.623z"/>
</g>
</svg>
