<?xml version="1.0" encoding="utf-8"?>
<!-- Generator: Adobe Illustrator 15.0.0, SVG Export Plug-In . SVG Version: 6.00 Build 0)  -->
<!DOCTYPE svg PUBLIC "-//W3C//DTD SVG 1.1//EN" "http://www.w3.org/Graphics/SVG/1.1/DTD/svg11.dtd">
<svg version="1.1" id="Layer_1" xmlns="http://www.w3.org/2000/svg" xmlns:xlink="http://www.w3.org/1999/xlink" x="0px" y="0px"
	 viewBox="0 0 94 76" enable-background="new 0 0 94 76" xml:space="preserve">
<polygon fill="#B4B4E6" points="17.666,62.334 48.333,76 80.666,59.334 47,0 "/>
<polygon fill="#9A9ACC" points="17.666,62.334 0,52.667 0,24 47,0 "/>
<polygon fill="#040468" points="94,53.334 80.666,59.334 47,0 94,22 "/>
<g>
	<path fill="#FFFFFF" stroke="#040468" d="M44.144,60.709l-2.883-3.398c2.422-1.531,4.539-3.387,6.352-5.566
		s3.023-4.418,3.633-6.715c-1.484,0.922-3.227,1.383-5.227,1.383c-2.5,0-4.645-0.93-6.434-2.789s-2.684-4.094-2.684-6.703
		c0-2.719,0.953-5.023,2.859-6.914s4.234-2.836,6.984-2.836c3.094,0,5.625,1.117,7.594,3.352s2.953,5.102,2.953,8.602
		c0,3.969-1.234,7.98-3.703,12.035S47.972,58.396,44.144,60.709z M52.159,40.365c0.188-1.25,0.281-2.062,0.281-2.438
		c0-1.891-0.527-3.438-1.582-4.641s-2.41-1.805-4.066-1.805c-1.516,0-2.77,0.512-3.762,1.535s-1.488,2.309-1.488,3.855
		c0,1.422,0.539,2.648,1.617,3.68s2.367,1.547,3.867,1.547C48.776,42.1,50.487,41.521,52.159,40.365z"/>
</g>
</svg>
