<?xml version="1.0" encoding="utf-8"?>
<!-- Generator: Adobe Illustrator 15.0.0, SVG Export Plug-In . SVG Version: 6.00 Build 0)  -->
<!DOCTYPE svg PUBLIC "-//W3C//DTD SVG 1.1//EN" "http://www.w3.org/Graphics/SVG/1.1/DTD/svg11.dtd">
<svg version="1.1" id="Layer_1" xmlns="http://www.w3.org/2000/svg" xmlns:xlink="http://www.w3.org/1999/xlink" x="0px" y="0px"
	 width="94px" height="76px" viewBox="0 0 94 76" enable-background="new 0 0 94 76" xml:space="preserve">
<polygon fill="#F4F4F4" stroke="#020202" stroke-miterlimit="10" points="17.666,62.334 48.333,76 80.666,59.334 47,0 "/>
<polygon fill="#CCCCCC" stroke="#000000" stroke-miterlimit="10" points="17.666,62.334 0,52.667 0,24 47,0 "/>
<polygon fill="#686868" stroke="#020202" stroke-miterlimit="10" points="94,53.334 80.666,59.334 47,0 94,22 "/>
<g>
	<path fill="#FFFFFF" stroke="#000000" d="M37.464,36.374c0-2.561,0.961-4.734,2.883-6.522c1.922-1.788,4.273-2.682,7.055-2.682
		c2.734,0,5.043,0.886,6.926,2.658c1.883,1.772,2.824,3.955,2.824,6.546c0,2.921-1.359,5.333-4.078,7.237
		c3.031,1.751,4.547,4.331,4.547,7.739c0,2.705-0.984,4.941-2.953,6.708c-1.969,1.768-4.453,2.65-7.453,2.65
		c-2.969,0-5.461-0.902-7.477-2.709c-2.016-1.806-3.023-4.038-3.023-6.696c0-3.33,1.547-5.895,4.641-7.692
		c-1.391-1.124-2.387-2.244-2.988-3.361C37.765,39.135,37.464,37.842,37.464,36.374z M52.886,51.545v-0.469
		c0-1.5-0.535-2.723-1.605-3.668s-2.457-1.418-4.16-1.418c-1.672,0-3.035,0.477-4.09,1.43s-1.582,2.188-1.582,3.703
		s0.539,2.75,1.617,3.703s2.477,1.43,4.195,1.43c1.641,0,2.988-0.438,4.043-1.312S52.886,52.936,52.886,51.545z M52.487,36.521
		c0-1.422-0.488-2.594-1.465-3.516s-2.215-1.383-3.715-1.383c-1.516,0-2.758,0.453-3.727,1.359s-1.453,2.07-1.453,3.492
		c0,1.359,0.512,2.523,1.535,3.492s2.254,1.453,3.691,1.453c1.422,0,2.633-0.48,3.633-1.441S52.487,37.865,52.487,36.521z"/>
</g>
</svg>
