<?xml version="1.0" encoding="utf-8"?>
<!-- Generator: Adobe Illustrator 15.0.0, SVG Export Plug-In . SVG Version: 6.00 Build 0)  -->
<!DOCTYPE svg PUBLIC "-//W3C//DTD SVG 1.1//EN" "http://www.w3.org/Graphics/SVG/1.1/DTD/svg11.dtd">
<svg version="1.1" id="Layer_1" xmlns="http://www.w3.org/2000/svg" xmlns:xlink="http://www.w3.org/1999/xlink" x="0px" y="0px"
	 width="94px" height="76px" viewBox="0 0 94 76" enable-background="new 0 0 94 76" xml:space="preserve">
<polygon fill="#F4F4F4" stroke="#020202" stroke-miterlimit="10" points="17.666,62.334 48.333,76 80.666,59.334 47,0 "/>
<polygon fill="#CCCCCC" stroke="#000000" stroke-miterlimit="10" points="17.666,62.334 0,52.667 0,24 47,0 "/>
<polygon fill="#686868" stroke="#020202" stroke-miterlimit="10" points="94,53.334 80.666,59.334 47,0 94,22 "/>
<g>
	<path fill="#FFFFFF" stroke="#000000" d="M43.815,41.279h0.281c2.047,0,3.605-0.422,4.676-1.266s1.605-2.07,1.605-3.68
		c0-1.453-0.52-2.633-1.559-3.539s-2.402-1.359-4.09-1.359c-1.703,0-3.594,0.531-5.672,1.594v-4.477
		c1.906-0.953,3.984-1.43,6.234-1.43c3.016,0,5.395,0.789,7.137,2.365c1.742,1.577,2.613,3.732,2.613,6.464
		c0,1.655-0.336,3.049-1.008,4.181c-0.672,1.133-1.742,2.104-3.211,2.916c1.281,0.5,2.219,1.114,2.812,1.841
		c0.594,0.728,1.055,1.606,1.383,2.639s0.492,2.126,0.492,3.283c0,2.862-0.953,5.227-2.859,7.095s-4.312,2.803-7.219,2.803
		c-2.484,0-4.883-0.602-7.195-1.805v-5.109c2.469,1.547,4.867,2.32,7.195,2.32c1.578,0,2.848-0.469,3.809-1.406
		s1.441-2.18,1.441-3.727c0-1.297-0.398-2.43-1.195-3.398c-0.469-0.547-0.988-0.949-1.559-1.207s-1.801-0.504-3.691-0.738
		l-0.422-0.047V41.279z"/>
</g>
</svg>
