<?xml version="1.0" encoding="utf-8"?>
<!-- Generator: Adobe Illustrator 15.0.0, SVG Export Plug-In . SVG Version: 6.00 Build 0)  -->
<!DOCTYPE svg PUBLIC "-//W3C//DTD SVG 1.1//EN" "http://www.w3.org/Graphics/SVG/1.1/DTD/svg11.dtd">
<svg version="1.1" id="Layer_1" xmlns="http://www.w3.org/2000/svg" xmlns:xlink="http://www.w3.org/1999/xlink" x="0px" y="0px"
	 viewBox="0 0 94 76" enable-background="new 0 0 94 76" xml:space="preserve">
<polygon fill="#F4F4F4" stroke="#020202" stroke-miterlimit="10" points="17.666,62.334 48.333,76 80.666,59.334 47,0 "/>
<polygon fill="#CCCCCC" stroke="#000000" stroke-miterlimit="10" points="17.666,62.334 0,52.667 0,24 47,0 "/>
<polygon fill="#686868" stroke="#020202" stroke-miterlimit="10" points="94,53.334 80.666,59.334 47,0 94,22 "/>
<g>
	<path fill="#FFFFFF" stroke="#000000" d="M45.062,55.811h12.464v4.523H36.808v-0.328l1.969-2.32
		c3.078-3.812,5.527-7.047,7.348-9.703s3.008-4.664,3.562-6.023s0.832-2.703,0.832-4.031c0-1.844-0.523-3.324-1.57-4.441
		s-2.438-1.676-4.172-1.676c-1.312,0-2.605,0.387-3.879,1.16s-2.418,1.863-3.434,3.27v-5.953c2.547-2.078,5.172-3.117,7.875-3.117
		c2.859,0,5.215,0.953,7.066,2.86c1.852,1.906,2.777,4.329,2.777,7.266c0,1.313-0.23,2.716-0.691,4.208
		c-0.46,1.492-1.276,3.211-2.448,5.156c-1.171,1.945-3.163,4.599-5.974,7.958L45.062,55.811z"/>
</g>
</svg>
