<?xml version="1.0" encoding="utf-8"?>
<!-- Generator: Adobe Illustrator 15.0.0, SVG Export Plug-In . SVG Version: 6.00 Build 0)  -->
<!DOCTYPE svg PUBLIC "-//W3C//DTD SVG 1.1//EN" "http://www.w3.org/Graphics/SVG/1.1/DTD/svg11.dtd">
<svg version="1.1" id="Layer_1" xmlns="http://www.w3.org/2000/svg" xmlns:xlink="http://www.w3.org/1999/xlink" x="0px" y="0px"
	 viewBox="0 0 94 76" enable-background="new 0 0 94 76" xml:space="preserve">
<polygon fill="#B4B4E6" points="17.666,62.334 48.333,76 80.666,59.334 47,0 "/>
<polygon fill="#9A9ACC" points="17.666,62.334 0,52.667 0,24 47,0 "/>
<polygon fill="#040468" points="94,53.334 80.666,59.334 47,0 94,22 "/>
<g>
	<path fill="#FFFFFF" stroke="#040468" d="M40.019,27.592H54.55v4.172H44.284v8.273c0.328-0.031,0.664-0.047,1.008-0.047
		c3.172,0,5.781,0.965,7.828,2.895s3.07,4.387,3.07,7.371c0,3.078-1.012,5.582-3.035,7.512s-4.645,2.895-7.863,2.895
		c-2.656,0-5.234-0.641-7.734-1.922v-4.828c2.359,1.531,4.664,2.297,6.914,2.297c1.969,0,3.621-0.574,4.957-1.723
		s2.004-2.559,2.004-4.23c0-1.734-0.727-3.184-2.18-4.348s-3.266-1.746-5.438-1.746c-1.859,0-3.125,0.156-3.797,0.469V27.592z"/>
</g>
</svg>
